<?xml version="1.0" standalone="no"?>
<!DOCTYPE svg PUBLIC "-//W3C//DTD SVG 20010904//EN"
 "http://www.w3.org/TR/2001/REC-SVG-20010904/DTD/svg10.dtd">
<svg version="1.0" xmlns="http://www.w3.org/2000/svg"
 width="152.000000pt" height="152.000000pt" viewBox="0 0 152.000000 152.000000"
 preserveAspectRatio="xMidYMid meet">
<metadata>
Created by potrace 1.14, written by Peter Selinger 2001-2017
</metadata>
<g transform="translate(0.000000,152.000000) scale(0.100000,-0.100000)"
fill="#000000" stroke="none">
<path d="M669 1516 c-2 -2 -17 -6 -34 -9 -16 -3 -45 -10 -62 -16 -18 -5 -33
-8 -33 -6 0 7 -145 -67 -184 -95 -248 -170 -372 -493 -306 -795 65 -293 289
-521 568 -578 85 -17 242 -15 317 3 66 17 181 70 242 111 149 103 267 286 307
479 21 101 15 260 -14 360 -49 169 -171 341 -305 428 -45 29 -183 90 -230 102
-48 12 -257 25 -266 16z"/>
</g>
</svg>
